<?xml version="1.0" encoding="UTF-8" standalone="no"?>
<!-- Created with Inkscape (http://www.inkscape.org/) -->

<svg
   width="150mm"
   height="150mm"
   viewBox="0 0 150 150"
   version="1.1"
   id="svg1"
   xml:space="preserve"
   xmlns="http://www.w3.org/2000/svg"
   xmlns:svg="http://www.w3.org/2000/svg"><defs
     id="defs1" /><g
     id="layer1"><path
       style="fill:#00150e;fill-opacity:1;stroke-width:1.06645"
       d="M 72.606928,148.26866 C 52.541291,139.60658 37.576435,127.73142 28.524546,113.28767 24.630383,107.07391 21.402758,99.833663 19.465485,92.966295 c -0.713988,-2.531 -0.886063,-3.50588 -0.635769,-3.60192 0.188746,-0.0724 1.727224,-0.0954 3.418841,-0.0511 l 3.075666,0.0806 0.263361,0.98758 c 0.671128,2.51665 2.625406,8.023597 3.74393,10.549985 4.307203,9.72865 11.522998,19.043 20.137871,25.99453 3.763593,3.03693 7.778899,5.78025 8.460344,5.78025 0.260335,0 1.796335,-0.24018 3.413333,-0.53373 5.541715,-1.00606 8.944136,-2.53239 11.704546,-5.25065 2.192787,-2.1593 3.256217,-4.28673 3.442207,-6.88623 0.24764,-3.46108 -0.92573,-5.7894 -5.288577,-10.49409 -4.473291,-4.8238 -6.099933,-7.23261 -7.209204,-10.675751 -0.361555,-1.122257 -0.91747,-1.962687 -2.076512,-3.139257 -2.331712,-2.36698 -3.712172,-2.803617 -9.877004,-3.124197 -5.787002,-0.30093 -8.185312,-0.74867 -10.889756,-2.03301 -2.055342,-0.97607 -5.12314,-3.544947 -5.993973,-5.019137 l -0.479669,-0.81202 h -8.686285 c -8.513867,0 -8.686285,-0.0113 -8.686285,-0.56741 0,-0.98739 1.162179,-3.087277 2.16708,-3.915607 1.099168,-0.90603 2.640199,-1.44245 4.143833,-1.44245 0.654931,0 1.025383,-0.13295 1.025383,-0.368 0,-0.75906 1.706162,-3.019217 2.800793,-3.710227 1.735232,-1.0954 3.379463,-1.44884 5.00716,-1.07629 l 1.362416,0.31182 1.306493,-1.46572 c 1.942247,-2.178977 3.796826,-3.083257 6.628142,-3.231867 3.769905,-0.19787 6.658849,1.20664 8.692081,4.225817 l 0.988648,1.46807 2.055679,0.0294 c 2.333391,0.0334 3.721288,0.61076 5.215736,2.16982 1.530639,1.596807 2.388923,4.669167 1.839584,6.585064 l -0.242713,0.8465 -5.558545,0.14108 -5.558544,0.14108 0.851876,1.03278 c 1.277316,1.54857 2.776015,2.127737 6.425477,2.483087 1.745983,0.17001 3.958683,0.55316 4.91711,0.85146 0.958429,0.2983 1.8305,0.48803 1.937938,0.42163 0.107438,-0.0664 0.280908,-0.65582 0.385488,-1.30984 0.47811,-2.989927 2.840049,-7.125214 6.481683,-11.348181 2.30852,-2.67703 2.33502,-2.76765 1.32943,-4.54619 -0.77444,-1.369717 -2.34909,-2.032387 -6.244894,-2.628107 -4.76828,-0.72915 -7.416074,-2.11536 -9.030729,-4.727917 L 55.630993,64.1401 h -8.729484 -8.729485 l 0.182706,-0.77596 c 0.500225,-2.124477 2.522302,-3.738687 4.683352,-3.738687 0.83237,0 1.039021,-0.11967 1.180575,-0.68366 0.498672,-1.98687 3.069552,-3.469904 5.513414,-3.180467 1.323683,0.15677 1.420784,0.12065 2.111958,-0.785514 0.398467,-0.522416 1.455642,-1.308892 2.349279,-1.747704 3.318605,-1.629602 7.134281,-0.745044 9.338507,2.164871 0.923704,1.219424 1.0324,1.276174 2.743135,1.431954 3.315418,0.30191 5.203308,2.3741 5.203308,5.711257 v 1.60391 h -5.828106 c -5.7677,0 -5.822938,0.005 -5.328352,0.55223 0.772351,0.85344 3.651464,1.66286 7.031794,1.976897 3.690554,0.34287 5.511594,1.07644 7.338531,2.95623 l 1.25545,1.29176 0.86594,-1.05054 c 0.99006,-1.20112 2.656777,-4.270947 3.291647,-6.062667 1.22395,-3.454267 1.02157,-8.172464 -0.52917,-12.336357 L 78.673475,49.04427 64.3413,48.97111 50.009117,48.89795 50.200209,47.84243 c 0.399851,-2.208631 1.982408,-3.991674 4.108111,-4.628548 0.820824,-0.245934 1.316238,-0.608879 1.627128,-1.192057 0.777762,-1.458948 2.631374,-3.300614 4.103805,-4.077342 1.238748,-0.653468 1.754546,-0.750281 3.999569,-0.750707 l 2.577417,-4.91e-4 0.634905,-1.196867 c 2.198104,-4.143611 7.637561,-6.74507 12.474648,-5.96608 2.69721,0.434376 4.617597,1.493629 6.917877,3.815783 1.92736,1.945687 2.08934,2.047182 2.821657,1.767899 0.4273,-0.162953 1.57686,-0.301251 2.55458,-0.307319 1.43728,-0.0085 2.12282,0.15888 3.580187,0.876335 2.02852,0.998636 3.03349,2.040068 4.00251,4.147749 l 0.664107,1.444497 2.04189,0.132454 c 2.29228,0.148684 3.4132,0.625985 4.85414,2.066921 1.21271,1.212704 1.77077,2.258136 2.01255,3.770203 l 0.18522,1.158284 H 96.311953 83.263402 l 0.1578,0.634869 c 0.0868,0.349177 0.50049,1.71415 0.919357,3.033275 1.07701,3.391868 1.27833,8.932432 0.4511,12.414912 -0.31331,1.31893 -0.5235,2.444187 -0.46711,2.500587 0.0564,0.0564 0.91345,-0.0387 1.90457,-0.21127 0.99111,-0.1726 2.74393,-0.31478 3.895157,-0.31595 1.15121,-0.001 2.91845,-0.13507 3.92719,-0.297537 1.792917,-0.28878 4.519597,-1.54928 4.732407,-2.18771 0.0765,-0.22941 -1.28524,-0.34278 -4.781687,-0.39806 l -4.888607,-0.0773 -0.0911,-1.11626 c -0.15267,-1.872027 0.20487,-2.958177 1.400977,-4.255807 1.29412,-1.40396 2.55331,-1.92056 4.335727,-1.7788 1.02766,0.0817 1.28494,4.5e-4 1.50125,-0.47429 0.52222,-1.146134 1.84593,-2.435221 3.21086,-3.126889 3.007957,-1.524247 5.984727,-1.079185 8.496807,1.270368 1.36509,1.276744 1.42102,1.298884 3.28236,1.298884 1.63549,0 2.05684,0.11304 3.09097,0.829167 0.65855,0.45605 1.44425,1.31312 1.746,1.90462 0.461,0.9036 0.6913,1.07544 1.44141,1.07544 2.03521,0 3.88228,1.56311 4.58465,3.879767 l 0.19247,0.63488 h -9.57297 -9.573 l -1.10466,1.48136 c -2.114997,2.836287 -5.100447,4.184677 -10.459344,4.724047 -7.684824,0.77347 -9.438914,1.821647 -14.405511,8.608234 -3.14354,4.295467 -4.437417,6.839367 -4.916497,9.666304 -0.75477,4.45374 1.16764,8.393067 5.940617,12.173325 l 1.136547,0.90017 0.46102,-0.89151 c 0.73547,-1.422234 2.67933,-3.361438 4.08203,-4.072238 1.763147,-0.89346 3.924117,-1.47817 6.723834,-1.81934 2.64384,-0.32218 4.801287,-1.30477 5.730677,-2.609997 l 0.56279,-0.79035 h -5.914497 c -6.738807,0 -6.257037,0.2043 -6.257037,-2.65338 0,-3.468127 1.68306,-6.203607 4.735877,-7.697214 1.37401,-0.67225 1.93645,-0.78387 3.80999,-0.75616 2.190197,0.0324 2.199617,0.0293 2.649117,-0.84963 2.07206,-4.051887 7.092287,-6.615267 11.519027,-5.881727 2.62978,0.43576 4.71331,1.58348 6.66806,3.673107 l 1.6912,1.8079 1.23605,-0.31124 c 1.65687,-0.41721 2.58573,-0.39237 4.29352,0.11479 1.99508,0.59247 4.07151,2.51205 4.91271,4.541567 0.63424,1.53023 0.67979,1.57125 1.58188,1.42486 0.51085,-0.0829 1.55872,0.0127 2.32858,0.21237 2.73933,0.71056 4.55095,2.60546 4.9647,5.192907 l 0.18899,1.18185 h -9.99209 -9.99209 l -0.46125,0.77595 c -0.68502,1.152397 -2.99443,3.394407 -4.59832,4.464117 -0.77595,0.51753 -2.61708,1.34369 -4.0914,1.835907 -2.61791,0.874037 -2.84213,0.899724 -9.593617,1.099334 -5.424497,0.16037 -7.185584,0.30705 -8.178784,0.681217 -1.51065,0.5691 -2.75114,1.67025 -3.28365,2.9148 -0.7651,1.78817 -0.57672,2.21173 2.22153,4.99494 4.303507,4.28039 5.965327,7.85859 5.973057,12.86107 0.002,1.47432 -0.049,3.82335 -0.1138,5.22006 -0.15045,3.23952 0.25438,4.1272 2.318297,5.08343 1.75967,0.81527 1.66136,0.85606 6.333447,-2.62858 9.98211,-7.44509 18.00262,-17.55081 22.90363,-28.858187 l 1.63852,-3.780331 3.29287,-0.004 c 2.37547,-0.003 3.29306,0.0903 3.29354,0.33471 0.001,0.70664 -2.05789,5.996028 -3.51991,9.041218 -7.87941,16.41163 -21.10546,29.17405 -40.497201,39.07757 -3.78459,1.93282 -11.515404,5.29669 -12.162804,5.29232 -0.21645,-0.001 -2.1077,-0.74263 -4.202767,-1.64704 z M 104.97538,95.291762 c 1.97586,-0.51465 3.90847,-1.51941 5.30059,-2.755737 l 1.12865,-1.00237 -5.40407,-0.0117 -5.40409,-0.0117 -0.29393,0.84319 c -0.16166,0.46375 -0.676967,1.399907 -1.145117,2.080347 -0.46816,0.68043 -0.76098,1.32857 -0.65071,1.44029 0.27986,0.28356 4.657437,-0.11046 6.468677,-0.58223 z M 47.434047,88.476885 c -0.05897,-0.11639 -0.482213,-1.001007 -0.940551,-1.965827 l -0.833342,-1.75421 -3.505709,-0.01 -3.50571,-0.01 0.684059,0.73227 c 0.376231,0.40274 1.255441,1.06851 1.9538,1.47949 1.793418,1.055407 6.500933,2.224677 6.147453,1.526927 z m 88.236783,-5.899767 c -0.91927,-0.690757 -3.60179,-1.987007 -4.52525,-2.186717 l -0.85712,-0.18535 0.38753,-3.024017 c 0.21314,-1.66322 1.36481,-12.779614 2.55927,-24.703111 2.02501,-20.21437 2.13895,-21.696652 1.68641,-21.938832 -0.26693,-0.142862 -2.68356,-1.011135 -5.37031,-1.929509 -2.68673,-0.918375 -7.99584,-2.76902 -11.79802,-4.112535 -3.80217,-1.343522 -9.57951,-3.371721 -12.83851,-4.507111 -3.25902,-1.135388 -9.417267,-3.295107 -13.685014,-4.799373 -4.267747,-1.504265 -9.258594,-3.245589 -11.090784,-3.869609 L 76.807795,10.186373 65.325377,14.20473 c -6.315337,2.210095 -14.529815,5.090385 -18.254396,6.400643 -3.724581,1.310256 -8.740068,3.061303 -11.145527,3.891216 -9.540855,3.291708 -17.29262,6.052398 -17.457484,6.217261 -0.132216,0.132219 3.5841,39.241237 4.027448,42.383244 0.109027,0.77267 -0.173365,1.00044 -1.806885,1.45735 -0.698359,0.19534 -1.939292,0.72822 -2.75763,1.18416 -1.060142,0.59067 -1.520381,0.72585 -1.600921,0.4702 -0.124179,-0.39417 -0.159221,-0.73506 -2.988028,-29.067937 -1.08068,-10.823914 -1.964874,-19.975431 -1.964874,-20.336681 0,-0.604933 0.562909,-0.852499 7.124672,-3.133327 C 29.889364,19.712591 45.34772,14.289678 61.668127,8.5277569 l 15.161468,-5.3527607 12.913951,4.552808 c 14.324014,5.0499178 23.419314,8.2416938 36.897994,12.9484578 17.49916,6.110712 15.66018,5.377367 15.66018,6.244871 0,1.198521 -5.03507,51.074758 -5.38803,53.372468 -0.40127,2.612317 -0.51855,2.827787 -1.24286,2.283517 z"
       id="path1-2" /><path
       style="fill:#00bc7d;fill-opacity:1;stroke-width:1.06645"
       d="M 71.022125,145.47417 C 50.956484,136.81209 35.991628,124.93693 26.939739,110.49318 23.045576,104.27942 19.817951,97.039169 17.880678,90.171788 17.16669,87.64079 16.994615,86.665915 17.244909,86.569871 c 0.188746,-0.07241 1.727224,-0.09545 3.418841,-0.05108 l 3.075666,0.08062 0.263361,0.987577 c 0.671128,2.516654 2.625406,8.023606 3.74393,10.550007 4.307203,9.728645 11.522998,19.042995 20.137871,25.994525 3.763593,3.03693 7.778899,5.78025 8.460344,5.78025 0.260335,0 1.796335,-0.24018 3.413333,-0.53373 5.541711,-1.00606 8.944143,-2.53239 11.704559,-5.25065 2.192782,-2.1593 3.256218,-4.28673 3.44221,-6.88623 0.24764,-3.46108 -0.925738,-5.7894 -5.288588,-10.49409 -4.473292,-4.8238 -6.099938,-7.232613 -7.209209,-10.675759 -0.361555,-1.122258 -0.91747,-1.962686 -2.076512,-3.139259 -2.331712,-2.366978 -3.712172,-2.803626 -9.877004,-3.124201 -5.787002,-0.300931 -8.185312,-0.74867 -10.889756,-2.033008 -2.055342,-0.976069 -5.12314,-3.544948 -5.993973,-5.019146 L 33.090313,81.94368 h -8.686285 c -8.513867,0 -8.686285,-0.01131 -8.686285,-0.567406 0,-0.987395 1.162179,-3.08728 2.16708,-3.915614 1.099168,-0.906025 2.640199,-1.44245 4.143833,-1.44245 0.654931,0 1.025383,-0.132954 1.025383,-0.368 0,-0.759057 1.706162,-3.01922 2.800793,-3.710227 1.735232,-1.095405 3.379463,-1.448838 5.00716,-1.076294 l 1.362416,0.31182 1.306493,-1.46572 c 1.942247,-2.178974 3.796826,-3.08326 6.628142,-3.23187 3.769905,-0.19787 6.658849,1.206647 8.692081,4.225823 l 0.988648,1.468067 2.055679,0.02943 c 2.333391,0.03338 3.721288,0.610767 5.215736,2.169823 1.530639,1.596808 2.388923,4.669168 1.839584,6.585069 l -0.242713,0.846496 -5.558545,0.141081 -5.558544,0.141081 0.851876,1.032783 c 1.277316,1.548573 2.776015,2.127741 6.425477,2.483093 1.745983,0.170003 3.958683,0.553158 4.91711,0.851455 0.958429,0.298297 1.8305,0.488029 1.937938,0.421632 0.107438,-0.06644 0.280908,-0.655825 0.385488,-1.309837 0.47811,-2.989934 2.840049,-7.125227 6.481692,-11.348193 2.308521,-2.677027 2.335022,-2.767654 1.329428,-4.546196 -0.774438,-1.369718 -2.349088,-2.032389 -6.244901,-2.628109 -4.76828,-0.729143 -7.416074,-2.115359 -9.030729,-4.72792 L 54.046186,61.34565 h -8.729484 -8.729485 l 0.182706,-0.77596 c 0.500225,-2.124478 2.522302,-3.73869 4.683352,-3.73869 0.83237,0 1.039021,-0.119667 1.180575,-0.68366 0.498672,-1.986873 3.069552,-3.469912 5.513414,-3.180466 1.323683,0.156768 1.420784,0.120647 2.111958,-0.785527 0.398467,-0.522412 1.455642,-1.308888 2.349279,-1.7477 3.318605,-1.629602 7.134281,-0.745044 9.338507,2.164874 0.923704,1.219434 1.0324,1.27618 2.743135,1.431956 3.315424,0.301913 5.203321,2.374102 5.203321,5.711263 v 1.60391 h -5.828119 c -5.7677,0 -5.822938,0.0053 -5.328352,0.55223 0.772351,0.853438 3.651464,1.662864 7.031793,1.976902 3.690566,0.342864 5.511608,1.076444 7.338543,2.956224 l 1.255448,1.291761 0.865939,-1.05054 c 0.990059,-1.201112 2.656784,-4.270945 3.29165,-6.062669 1.223957,-3.454267 1.021572,-8.172472 -0.529161,-12.336366 l -0.902528,-2.423383 -14.332184,-0.07316 -14.332183,-0.07316 0.191092,-1.05552 c 0.399851,-2.208631 1.982408,-3.991674 4.108111,-4.628548 0.820824,-0.245934 1.316238,-0.608879 1.627128,-1.192057 0.777762,-1.458948 2.631374,-3.300614 4.103805,-4.077342 1.238748,-0.653468 1.754546,-0.750281 3.999569,-0.750707 l 2.577417,-4.91e-4 0.63491,-1.196867 c 2.198106,-4.143611 7.637568,-6.74507 12.474661,-5.96608 2.697211,0.434376 4.617594,1.493629 6.917874,3.815783 1.927365,1.945687 2.089338,2.047182 2.821659,1.767899 0.427306,-0.162953 1.576866,-0.301251 2.554588,-0.307319 1.437278,-0.0085 2.122814,0.15888 3.580184,0.876335 2.028518,0.998636 3.033488,2.040068 4.002509,4.147749 l 0.664111,1.444497 2.041892,0.132454 c 2.29228,0.148684 3.4132,0.625985 4.85414,2.066921 1.21271,1.212704 1.77077,2.258136 2.01255,3.770203 l 0.18522,1.158284 H 94.727175 81.678615 l 0.157792,0.634869 c 0.08679,0.349177 0.500497,1.71415 0.919358,3.033275 1.077019,3.391869 1.278339,8.932446 0.451101,12.414921 -0.313302,1.318934 -0.523498,2.444189 -0.467104,2.500594 0.05639,0.05642 0.913449,-0.03871 1.904564,-0.211275 0.991117,-0.172594 2.743936,-0.314774 3.89516,-0.315947 1.151213,-0.0011 2.91845,-0.135066 3.927196,-0.29754 1.792918,-0.288784 4.519599,-1.549276 4.732409,-2.187707 0.07646,-0.229415 -1.285244,-0.342779 -4.78169,-0.398063 l -4.888612,-0.07732 -0.09107,-1.116255 c -0.152673,-1.872038 0.204876,-2.958186 1.400986,-4.255812 1.294117,-1.403962 2.553308,-1.920561 4.335722,-1.778798 1.027664,0.08169 1.284945,4.48e-4 1.501254,-0.474293 0.522219,-1.146137 1.845931,-2.435231 3.21086,-3.126899 3.007959,-1.524247 5.984729,-1.079185 8.496809,1.270367 1.36509,1.276755 1.42102,1.298895 3.28236,1.298895 1.63549,0 2.05684,0.113033 3.09097,0.829166 0.65855,0.456046 1.44425,1.313121 1.746,1.904618 0.461,0.903604 0.6913,1.075441 1.44141,1.075441 2.03521,0 3.88228,1.563108 4.58465,3.879771 l 0.19247,0.63488 h -9.57297 -9.573 l -1.10466,1.481364 c -2.115003,2.836281 -5.100448,4.18468 -10.459354,4.724049 -7.684829,0.773465 -9.438915,1.821648 -14.405518,8.608234 -3.143539,4.295474 -4.437418,6.839376 -4.916498,9.666314 -0.754768,4.453735 1.167639,8.393067 5.940623,12.173338 l 1.136552,0.90017 0.46102,-0.89151 c 0.735469,-1.422241 2.67933,-3.361444 4.082025,-4.072244 1.76315,-0.893462 3.924116,-1.478176 6.723839,-1.819345 2.643839,-0.322185 4.801291,-1.304771 5.730682,-2.610001 l 0.562787,-0.790347 h -5.914495 c -6.73881,0 -6.257041,0.204301 -6.257041,-2.653383 0,-3.468132 1.683063,-6.203611 4.735876,-7.697219 1.374016,-0.672248 1.936451,-0.783874 3.809993,-0.756156 2.190203,0.03242 2.19962,0.02933 2.649118,-0.849631 2.072061,-4.051897 7.092291,-6.615272 11.519031,-5.881735 2.62978,0.435763 4.71331,1.583478 6.66806,3.673114 l 1.6912,1.807901 1.23605,-0.311243 c 1.65687,-0.417207 2.58573,-0.392369 4.29352,0.114792 1.99508,0.592467 4.07151,2.512048 4.91271,4.541568 0.63424,1.53023 0.67979,1.571246 1.58188,1.424865 0.51085,-0.08286 1.55872,0.01269 2.32858,0.212362 2.73933,0.710566 4.55095,2.605468 4.9647,5.192914 l 0.18899,1.181851 h -9.99209 -9.99209 l -0.46125,0.77595 c -0.68502,1.152397 -2.99443,3.394408 -4.59832,4.464123 -0.77595,0.517527 -2.61708,1.343685 -4.0914,1.835906 -2.61791,0.874042 -2.84213,0.899733 -9.593618,1.099341 -5.424504,0.160373 -7.185589,0.307052 -8.178796,0.681217 -1.510649,0.569101 -2.751139,1.670247 -3.283648,2.9148 -0.765102,1.78817 -0.576717,2.21173 2.221537,4.99494 4.303504,4.28039 5.965323,7.85859 5.973055,12.86107 0.0021,1.47432 -0.04895,3.82335 -0.113801,5.22006 -0.150444,3.23952 0.254381,4.1272 2.318305,5.08343 1.759666,0.81527 1.66136,0.85606 6.333446,-2.62858 9.98211,-7.44509 18.00262,-17.55081 22.90363,-28.858192 l 1.63852,-3.780335 3.29287,-0.0043 c 2.37547,-0.0032 3.29306,0.09033 3.29354,0.334705 0.001,0.706642 -2.05789,5.996039 -3.51991,9.041232 -7.87941,16.41163 -21.10546,29.17405 -40.497209,39.07757 -3.784593,1.93282 -11.515415,5.29669 -12.16281,5.29232 -0.216448,-10e-4 -2.107696,-0.74263 -4.202772,-1.64704 z M 103.3906,92.49726 c 1.97586,-0.514648 3.90847,-1.519405 5.30059,-2.755742 l 1.12865,-1.002368 -5.40407,-0.01173 -5.404085,-0.01173 -0.293935,0.843189 c -0.161664,0.463757 -0.676973,1.39991 -1.145124,2.080348 -0.468161,0.680439 -0.760977,1.328574 -0.650705,1.440296 0.279858,0.283559 4.657439,-0.110463 6.468679,-0.582229 z M 45.84924,85.682381 c -0.05897,-0.116393 -0.482213,-1.001014 -0.940551,-1.965833 l -0.833342,-1.754205 -3.505709,-0.0096 -3.50571,-0.0096 0.684059,0.732268 c 0.376231,0.402745 1.255441,1.068509 1.9538,1.479487 1.793418,1.055414 6.500933,2.224682 6.147453,1.526935 z m 88.23681,-5.899769 c -0.91927,-0.690761 -3.60179,-1.987012 -4.52525,-2.186726 l -0.85712,-0.185349 0.38753,-3.024018 c 0.21314,-1.663216 1.36481,-12.779616 2.55927,-24.703127 2.02501,-20.21437 2.13895,-21.696652 1.68641,-21.938832 -0.26693,-0.142862 -2.68356,-1.011135 -5.37031,-1.929509 -2.68673,-0.918375 -7.99584,-2.76902 -11.79802,-4.112535 -3.80217,-1.343522 -9.57951,-3.371721 -12.83851,-4.507111 C 100.07103,16.060017 93.912779,13.900298 89.645033,12.396032 85.377277,10.891767 80.386427,9.1504427 78.554244,8.5264227 L 75.223003,7.3918423 63.74057,11.410199 c -6.315337,2.210095 -14.529815,5.090385 -18.254396,6.400643 -3.724581,1.310256 -8.740068,3.061303 -11.145527,3.891216 -9.540855,3.291708 -17.29262,6.052398 -17.457484,6.217261 -0.132216,0.132219 3.5841,39.241257 4.027448,42.383267 0.109027,0.772665 -0.173365,1.000438 -1.806885,1.457348 -0.698359,0.195342 -1.939292,0.728216 -2.75763,1.184156 -1.060142,0.590675 -1.520381,0.725848 -1.600921,0.470198 C 14.620996,73.020117 14.585954,72.679226 11.757147,44.346336 10.676467,33.522422 9.7922733,24.370905 9.7922733,24.009655 c 0,-0.604933 0.5629087,-0.852499 7.1246717,-3.133327 C 28.304557,16.91806 43.762913,11.495147 60.08332,5.7332248 L 75.244798,0.38046397 88.158763,4.9332723 c 14.324017,5.0499191 23.419317,8.2416947 36.897997,12.9484587 17.49916,6.110712 15.66018,5.377367 15.66018,6.244871 0,1.198521 -5.03507,51.074781 -5.38803,53.372493 -0.40127,2.612315 -0.51855,2.827781 -1.24286,2.283517 z"
       id="path1" /></g></svg>
