<?xml version="1.0" encoding="UTF-8" standalone="no"?>
<!-- Created with Inkscape (http://www.inkscape.org/) -->

<svg
   width="100mm"
   height="100mm"
   viewBox="0 0 100 100"
   version="1.1"
   id="svg1"
   xmlns="http://www.w3.org/2000/svg"
   xmlns:svg="http://www.w3.org/2000/svg">
  <defs
     id="defs1">
    <linearGradient
       id="paint0_linear_151_219"
       x1="20.5"
       y1="15.5"
       x2="132"
       y2="114"
       gradientUnits="userSpaceOnUse">
      <stop
         stop-color="#00CA76"
         id="stop17" />
      <stop
         offset="1"
         stop-color="#00E8D1"
         id="stop18" />
    </linearGradient>
    <clipPath
       clipPathUnits="userSpaceOnUse"
       id="clipPath1">
      <rect
         width="268"
         height="96"
         fill="#ffffff"
         id="rect1"
         x="-1.2598427e-06"
         y="-1.2598425e-06"
         style="stroke-width:0.999999" />
    </clipPath>
  </defs>
  <g
     id="layer1">
    <g
       id="g1"
       transform="matrix(4.0894144,0,0,4.0894144,-310.85964,-336.59871)">
      <g
         clip-path="url(#clipPath1)"
         id="g16"
         transform="matrix(0.26458333,0,0,0.26458333,73.554167,83.079167)">
        <mask
           id="mask0_151_219"
           maskUnits="userSpaceOnUse"
           x="11"
           y="-1"
           width="90"
           height="87">
          <path
             d="m 99.9924,42.9619 c -0.0523,-1.4058 -0.1223,-0.4657 -0.0778,-1.3309 0.0489,-0.9522 -0.268,-1.5059 0,-1.8714 -0.0389,-0.622 -0.0867,-1.2594 -0.2024,-1.8681 l -0.1801,-1.3496 c -0.0378,-0.284 0.0145,-0.699 -0.0456,-0.961 -0.0489,-0.2158 -0.0756,-0.4062 -0.1,-0.7167 -0.0156,-0.1651 -0.0867,-0.4403 -0.139,-0.5999 -0.3735,-1.1438 0.1101,-0.0309 -0.4058,-1.2363 l -0.4658,-1.0865 -0.3257,-0.7772 -0.4603,-1.3408 c -0.2346,-0.6836 -0.5292,-1.2846 -0.7415,-1.9781 -0.1157,-0.3787 -0.3024,-0.6881 -0.6371,-0.829 -0.0411,-0.3313 -0.1545,-0.6153 -0.2623,-0.917 -0.2046,-0.5735 -0.4414,-1.0997 -0.8794,-1.5279 l -0.2791,-0.6 c -0.0589,-0.1254 -0.2057,-0.2807 -0.2957,-0.3907 0.0278,-0.3127 -0.1045,-0.655 -0.2902,-0.9115 l 0.2568,-0.371 -0.6437,-0.4811 c -0.12,-0.3996 -0.3257,-0.7981 -0.1968,-1.2802 l -0.4702,-0.1343 c -0.0734,-0.3908 -0.3191,-0.7585 -0.4581,-1.1262 -0.2357,-0.623 -0.5392,-1.2076 -0.876,-1.8406 -0.7015,-1.3176 -0.3647,-0.1981 -0.8405,-1.3694 -0.5403,-0.393 -1.1051,-0.8256 -1.3897,-1.409 -0.2968,-0.6088 -0.8282,-1.0965 -1.4308,-1.419 0.408,0.1167 -1.7421,-1.8857 -1.5854,-1.7536 L 86.0333,11.0313 C 85.6697,10.7242 85.1994,10.4765 84.727,10.2002 L 83.673,9.58595 82.4356,8.83739 81.156,7.95563 C 81.0993,7.916 80.9681,7.86866 80.907,7.83453 80.5079,7.60997 79.7041,7.20266 79.2494,7.06065 L 78.9203,6.86251 C 78.271,6.47171 78.1109,6.5851 77.9008,6.1833 77.7296,5.85525 76.8635,5.80681 76.4944,5.86185 L 76.4689,5.72315 C 76.4366,5.61857 76.5756,5.48097 76.7057,5.40171 76.8224,5.33126 76.888,5.1177 76.8413,4.9889 76.7957,4.86451 76.4633,4.76763 76.3555,4.84689 76.1932,4.96578 76.0887,5.15072 76.0553,5.30814 l -0.0867,0.42161 c 0,0 -0.0067,-0.0022 -0.0111,-0.0033 C 75.8341,5.45895 75.8652,5.37969 75.7829,5.36648 L 75.3493,5.29383 C 75.326,5.29053 75.286,5.29713 75.2526,5.30153 L 74.4322,4.87662 73.4616,4.57939 C 73.0147,4.44289 72.6189,4.0554 72.1486,3.97614 71.6239,3.77028 71.0635,3.62718 70.5032,3.50609 70.2197,3.16483 68.6399,2.58249 68.034,2.39866 L 66.0729,1.80531 64.8277,1.48497 C 63.5181,1.14812 62.283,0.816768 60.9366,0.648342 L 58.7909,0.380841 C 58.085,0.292775 57.349,0.40616 56.6953,0.24654 56.5007,0.199205 56.3684,0.230028 56.0916,0.198104 L 54.4629,0.00986244 C 54.1816,-0.0231623 53.8526,0.0329798 53.5835,0.0605004 L 51.3611,0.287271 C 50.5673,0.367631 49.7647,0.534957 49.0075,0.652745 48.7018,0.615317 48.226,0.550368 47.9025,0.661552 L 46.545,1.125 c -0.249,0.08476 -0.6226,0.23998 -0.8516,0.34236 0.2502,-0.11229 -2.2991,0.28401 -2.1356,0.43592 -0.3113,-0.0099 -0.706,0.06825 -0.9773,0.20366 -0.4858,0.24328 -0.7271,0.2763 -1.5475,0.64728 -0.1357,0.06165 -0.4103,0.1354 -0.5926,0.19595 L 39.3353,3.31895 C 39.1474,3.38169 38.9329,3.43343 38.7383,3.5259 38.4404,3.66901 38.1291,3.83303 37.8,3.89027 l -0.4069,0.06936 c -0.0945,0.01651 -0.149,0.23888 -0.159,0.33024 L 35.4197,5.1232 c -1.0895,0.49978 -1.5253,0.57793 -2.2968,0.97974 -0.4703,0.24548 -0.9172,0.50087 -1.3564,0.78599 -0.4413,0.28621 -0.9694,0.48546 -1.4308,0.73315 -0.1289,0.06935 -1.5531,0.99845 -1.5309,1.16577 -0.647,0.25429 -1.2351,0.6627 -1.8121,1.12835 l -2.7594,2.2237 c -0.2735,0.2201 -0.5169,0.4337 -0.746,0.6924 l -0.9283,1.0524 c -0.2034,0.2311 -0.3724,0.5306 -0.5558,0.7816 -0.0968,0.1332 -0.1846,0.2653 -0.2291,0.4425 -0.2279,0.1937 -0.4502,0.4084 -0.6881,0.6407 -0.8817,0.863 -0.0912,0.2774 -0.7505,0.9269 -0.0078,0.2543 -0.9705,1.2076 -1.144,1.4619 -0.4024,0.59 -0.7459,1.0887 -1.1673,1.5984 -0.0422,0.0506 -0.856,1.5587 -0.9194,1.725 l -0.5559,1.4575 c 0.4058,-1.0634 -1.3141,2.6926 -1.0795,2.1873 -0.0378,0.0815 -0.0823,0.2466 -0.1134,0.338 l -0.4514,1.3033 c -0.0745,0.2136 -0.1867,0.4415 -0.219,0.6748 l -0.229,0.2455 c -0.3024,0.3248 -0.4792,0.7607 -0.7004,1.2164 -0.1423,0.294 -0.2424,0.4723 -0.2179,0.862 -0.0912,0.175 -0.358,0.4865 -0.4258,0.6649 l -0.4314,1.1393 c -0.398,1.0502 -0.0289,0.9677 -0.5503,2.2006 -0.537,1.2703 -0.1567,0.8817 -0.3735,2.6585 l -0.1579,1.2946 c -0.0778,0.6395 -0.0133,1.3562 0.0556,1.9528 -0.04,0.2862 -0.0923,0.5813 -0.1212,0.9258 l -0.119,1.4179 c -0.0044,0.0572 -0.1856,0.1563 -0.2234,0.1222 l -0.1846,-0.1608 0.1512,2.653 c 0.0178,0.3204 0,0.8983 -0.0433,1.2032 -0.1123,0.7871 0,1.4961 0.179,2.3305 0.0878,0.4095 0.1167,0.8278 0.2479,1.1834 0.1089,0.2961 0.0923,0.6803 0.1201,1.0006 0.0422,0.5031 0.11,1.048 0.2179,1.5445 0.07,0.3258 0.1834,0.6902 0.2857,1.0513 l 0.2257,0.797 c 0.0578,0.2036 0.1701,0.4216 0.2801,0.5735 l 0.1846,0.7519 c 0.1289,0.5229 0.2701,0.994 0.5092,1.4498 0.1934,1.3738 1.1517,2.6309 1.6498,3.5127 l 0.4291,0.7596 0.2224,0.3379 c 0.1879,0.415 0.4124,0.8234 0.6715,1.1944 0.0267,0.0881 0.0822,0.2499 0.1123,0.3314 0.478,1.3033 0.7437,1.2505 1.343,1.8626 0.3846,0.393 0.7571,0.8487 1.1073,1.3155 0.2268,0.3027 0.4146,0.6142 0.7382,0.7089 0.0744,0.2752 0.3379,0.5141 0.4958,0.753 0.2957,0.4491 0.6448,0.8916 1.1718,1.0777 0.1312,0.3489 0.3802,0.6472 0.6559,0.9401 l 0.497,0.5273 c 0.1623,0.3566 0.2779,0.8245 0.4802,1.169 l 0.8194,1.3959 c 0,0 0.1468,-0.1464 0.209,-0.1145 l 0.3458,0.1783 c 0.5292,0.273 0.8516,0.5813 1.0206,1.113 l 0.7937,0.7639 c 0.2146,0.207 0.4592,0.4811 0.716,0.698 0.1101,0.0924 0.4169,0.1662 0.5114,0.2631 0.5915,0.6142 1.4953,0.9214 1.9378,1.474 0.3013,0.3765 0.6015,0.4579 0.9461,0.6341 0.2713,0.1387 0.6437,0.6505 0.9961,0.6571 l 0.4514,0.218 c 0.328,0.273 0.6993,0.5317 1.1106,0.5658 0.1323,0.1387 0.3669,0.262 0.5526,0.3182 0.4147,0.4194 1.0083,0.5471 1.5675,0.7959 0.6159,0.2741 1.1485,0.6814 1.7522,0.8597 l 1.1328,0.3347 c 0.3424,0.4106 0.925,0.546 1.4464,0.6803 0.5892,0.4953 0.0978,-0.0353 1.5198,0.7628 0.4024,0.2257 1.0962,0.1597 1.4786,0.4294 0.3357,0.2366 0.6815,0.3974 1.1318,0.5449 l 1.2507,0.4073 0.8349,0.1728 0.9728,0.2554 c 0.5903,0.1552 1.1373,0.338 1.6999,0.3963 0.2557,0.0275 0.5391,0.066 0.8249,0.1222 l 1.035,0.2014 0.9317,0.0507 c 0.5091,0.0275 0.9538,0.164 1.4452,0.2785 0.567,0.1321 1.1173,-0.0264 1.631,0.011 l 1.6876,0.1244 c 0.3635,0.0264 0.6181,0.284 0.9639,-0.1013 0.2301,-0.2554 0.557,-0.2554 0.9083,-0.1079 l 0.8972,-0.1354 c 0.1167,0.043 0.2712,-0.0022 0.4547,-0.0341 l 1.8833,-0.3247 2.3458,-0.4855 1.1806,-0.0352 1.0495,-0.2037 c 0.368,-0.0715 0.8572,-0.0231 1.1173,-0.2631 l 0.1046,-0.0968 c -0.0857,0.0957 2.1556,-0.4866 1.9555,-0.403 l 1.7088,-0.71 c 0.2801,-0.1167 0.6081,-0.0583 0.9316,-0.3082 0.5659,-0.4381 1.1151,-0.1156 1.4953,-0.775 0.1857,0.0352 0.5303,-0.2114 0.7193,-0.295 0.3413,-0.1497 0.6537,-0.2576 0.965,-0.3677 0.3358,-0.1189 1.3764,-0.6748 1.6432,-0.8774 l 0.8805,-0.666 0.269,-0.2047 c 0.7783,-0.4833 1.1085,-0.2334 1.4086,-0.8091 l 0.5237,-0.185 c 0.1378,-0.0506 0.3024,-0.3148 0.3757,-0.4491 l 0.1168,-0.2169 c 0.3202,0.2125 0.458,-0.175 0.687,-0.3357 0.7582,-0.5339 1.6321,-0.9522 2.1913,-1.649 0.4091,-0.0287 0.9861,-0.4019 1.214,-0.6749 0.0845,-0.1012 0.2935,-0.2972 0.398,-0.3797 0.3825,-0.2235 0.686,-0.4106 0.8627,-0.7321 l 0.4625,-0.3071 c 0.2602,-0.1729 0.726,-0.3545 0.7538,-0.6814 0.4847,-0.2026 1.2641,-1.0084 1.8711,-1.2902 l 0.2446,-0.3622 c 0.488,-0.372 0.9449,-0.8531 1.4041,-1.3408 l 0.8038,-0.8553 c 0.2301,-0.2444 0.4247,-0.5053 0.547,-0.7794 0.2768,-0.1068 0.6759,-0.3391 0.7871,-0.6495 l 0.5347,-0.1288 0.1557,-0.9599 c 0.1612,-0.1222 0.3624,-0.3875 0.4536,-0.5724 l 0.4258,-0.8576 0.279,-0.317 c 0.2568,-0.6143 0.9317,-1.1878 1.1574,-1.9848 l 0.2079,-0.3468 1.0461,-2.0277 c 0.2446,-0.4733 0.3213,-1.0194 0.5348,-1.4982 l 0.6948,-1.5566 c 0.0701,-0.1959 -0.2746,-0.6506 -0.0356,-0.8256 l 0.1134,0.0055 c 0.4614,0.1387 -0.3624,0.8586 1.1707,1.1427 0.0889,-0.0287 0.249,-0.3688 0.1723,-0.4448 l -0.3869,-0.3787 -0.1289,-0.8982 -0.5103,-0.0298 0.0022,-0.099 c 0.3135,-0.3457 0.2957,-0.7882 0.4436,-1.2275 0.1145,-0.3412 0.3346,-0.7298 0.4236,-1.1074 l 0.229,-0.9753 0.3124,-1.7459 c 0.1156,-0.644 0.3513,-2.2061 0.2657,-2.7697 l 0.3302,-0.4359 -0.0078,-0.2257 c 0.2246,-0.4436 0.01,-1.0304 0.089,-1.5213 0.1489,-0.9258 0.2419,-1.7988 0.2067,-2.751 z"
             fill="#ffffff"
             id="path7" />
        </mask>
        <g
           mask="url(#mask0_151_219)"
           id="g15">
          <path
             d="m 99.9924,42.9619 c -0.0523,-1.4058 -0.1223,-0.4657 -0.0778,-1.3309 0.0489,-0.9522 -0.268,-1.5059 0,-1.8714 -0.0389,-0.622 -0.0867,-1.2594 -0.2024,-1.8681 l -0.1801,-1.3496 c -0.0378,-0.284 0.0145,-0.699 -0.0456,-0.961 -0.0489,-0.2158 -0.0756,-0.4062 -0.1,-0.7167 -0.0156,-0.1651 -0.0867,-0.4403 -0.139,-0.5999 -0.3735,-1.1438 0.1101,-0.0309 -0.4058,-1.2363 l -0.4658,-1.0865 -0.3257,-0.7772 -0.4603,-1.3408 c -0.2346,-0.6836 -0.5292,-1.2846 -0.7415,-1.9781 -0.1157,-0.3787 -0.3024,-0.6881 -0.6371,-0.829 -0.0411,-0.3313 -0.1545,-0.6153 -0.2623,-0.917 -0.2046,-0.5735 -0.4414,-1.0997 -0.8794,-1.5279 l -0.2791,-0.6 c -0.0589,-0.1254 -0.2057,-0.2807 -0.2957,-0.3907 0.0278,-0.3127 -0.1045,-0.655 -0.2902,-0.9115 l 0.2568,-0.371 -0.6437,-0.4811 c -0.12,-0.3996 -0.3257,-0.7981 -0.1968,-1.2802 l -0.4702,-0.1343 c -0.0734,-0.3908 -0.3191,-0.7585 -0.4581,-1.1262 -0.2356,-0.623 -0.5392,-1.2076 -0.876,-1.8406 -0.7015,-1.3176 -0.3647,-0.1981 -0.8405,-1.3694 -0.5403,-0.393 -1.1051,-0.8256 -1.3897,-1.409 -0.2968,-0.6088 -0.8282,-1.0965 -1.4308,-1.419 0.408,0.1167 -1.7421,-1.8857 -1.5854,-1.7536 L 86.0333,11.0313 C 85.6697,10.7242 85.1994,10.4765 84.727,10.2002 L 83.673,9.58595 82.4356,8.83739 81.156,7.95563 C 81.0993,7.916 80.9681,7.86866 80.907,7.83453 80.5079,7.60997 79.7041,7.20266 79.2494,7.06065 L 78.9203,6.8625 C 78.271,6.47171 78.1109,6.5851 77.9008,6.18329 77.7296,5.85525 76.8635,5.80681 76.4944,5.86185 L 76.4689,5.72315 C 76.4366,5.61857 76.5756,5.48097 76.7057,5.40171 76.8224,5.33126 76.888,5.1177 76.8413,4.9889 76.7957,4.86451 76.4633,4.76763 76.3555,4.84689 76.1932,4.96578 76.0887,5.15072 76.0553,5.30814 l -0.0867,0.42161 c 0,0 -0.0067,-0.0022 -0.0111,-0.0033 C 75.8341,5.45895 75.8652,5.37969 75.7829,5.36648 L 75.3493,5.29383 C 75.326,5.29053 75.286,5.29713 75.2526,5.30153 L 74.4322,4.87661 73.4616,4.57939 C 73.0147,4.44289 72.6189,4.0554 72.1486,3.97614 71.6239,3.77028 71.0635,3.62718 70.5032,3.50609 70.2197,3.16483 68.6399,2.58249 68.034,2.39865 L 66.0729,1.80531 64.8277,1.48497 C 63.5181,1.14812 62.283,0.816768 60.9366,0.648342 L 58.7909,0.380841 C 58.085,0.292775 57.349,0.40616 56.6953,0.24654 56.5007,0.199205 56.3684,0.230028 56.0916,0.198104 L 54.4629,0.00986244 C 54.1816,-0.0231623 53.8526,0.0329798 53.5835,0.0605004 L 51.3611,0.287271 C 50.5673,0.367631 49.7647,0.534957 49.0075,0.652745 48.7018,0.615317 48.226,0.550368 47.9025,0.661552 L 46.545,1.125 c -0.249,0.08476 -0.6226,0.23998 -0.8516,0.34236 0.2502,-0.11229 -2.2991,0.28401 -2.1356,0.43592 -0.3113,-0.0099 -0.706,0.06825 -0.9773,0.20366 -0.4858,0.24328 -0.7271,0.2763 -1.5475,0.64728 -0.1357,0.06165 -0.4103,0.1354 -0.5926,0.19595 L 39.3353,3.31895 C 39.1474,3.38169 38.9329,3.43343 38.7383,3.5259 38.4404,3.66901 38.1291,3.83303 37.8,3.89027 l -0.4069,0.06936 c -0.0945,0.01651 -0.149,0.23888 -0.159,0.33024 L 35.4197,5.1232 c -1.0895,0.49977 -1.5253,0.57793 -2.2968,0.97973 -0.4703,0.24549 -0.9172,0.50088 -1.3564,0.786 -0.4413,0.28621 -0.9694,0.48546 -1.4308,0.73314 -0.1289,0.06936 -1.5531,0.99845 -1.5309,1.16578 -0.647,0.25429 -1.2351,0.6627 -1.8121,1.12835 l -2.7594,2.2237 c -0.2735,0.2201 -0.5169,0.4337 -0.746,0.6924 l -0.9283,1.0524 c -0.2034,0.2311 -0.3724,0.5306 -0.5558,0.7816 -0.0968,0.1332 -0.1846,0.2653 -0.2291,0.4425 -0.2279,0.1937 -0.4502,0.4084 -0.6881,0.6407 -0.8817,0.863 -0.0912,0.2774 -0.7505,0.9269 -0.0078,0.2543 -0.9705,1.2076 -1.144,1.4619 -0.4024,0.59 -0.7459,1.0887 -1.1673,1.5984 -0.0422,0.0506 -0.856,1.5587 -0.9194,1.725 l -0.5559,1.4575 c 0.4058,-1.0634 -1.3141,2.6926 -1.0795,2.1873 -0.0378,0.0815 -0.0823,0.2466 -0.1134,0.338 l -0.4514,1.3033 c -0.0745,0.2136 -0.1867,0.4415 -0.219,0.6748 l -0.229,0.2455 c -0.3024,0.3248 -0.4792,0.7607 -0.7004,1.2164 -0.1423,0.294 -0.2424,0.4723 -0.2179,0.862 -0.0912,0.175 -0.358,0.4865 -0.4258,0.6649 l -0.4314,1.1393 c -0.398,1.0502 -0.0289,0.9677 -0.5503,2.2006 -0.537,1.2703 -0.1567,0.8817 -0.3735,2.6585 l -0.1579,1.2945 c -0.0778,0.6396 -0.0133,1.3563 0.0556,1.9529 -0.04,0.2862 -0.0923,0.5812 -0.1212,0.9258 l -0.119,1.4179 c -0.0044,0.0572 -0.1856,0.1563 -0.2234,0.1222 l -0.1846,-0.1608 0.1512,2.653 c 0.0178,0.3204 0,0.8983 -0.0433,1.2032 -0.1123,0.7871 0,1.4961 0.179,2.3305 0.0878,0.4095 0.1167,0.8278 0.2479,1.1834 0.1089,0.2961 0.0923,0.6803 0.1201,1.0006 0.0422,0.5031 0.11,1.048 0.2179,1.5445 0.07,0.3258 0.1834,0.6902 0.2857,1.0513 l 0.2257,0.797 c 0.0578,0.2036 0.1701,0.4216 0.2801,0.5735 l 0.1846,0.7519 c 0.1289,0.5229 0.2701,0.994 0.5092,1.4498 0.1934,1.3738 1.1517,2.6309 1.6498,3.5127 l 0.4291,0.7596 0.2224,0.3379 c 0.1879,0.415 0.4124,0.8234 0.6715,1.1944 0.0267,0.0881 0.0822,0.2499 0.1123,0.3314 0.478,1.3033 0.7437,1.2505 1.343,1.8626 0.3846,0.393 0.7571,0.8487 1.1073,1.3154 0.2268,0.3028 0.4146,0.6143 0.7382,0.709 0.0744,0.2752 0.3379,0.5141 0.4958,0.7529 0.2957,0.4492 0.6448,0.8917 1.1718,1.0778 0.1312,0.3489 0.3802,0.6472 0.6559,0.9401 l 0.497,0.5273 c 0.1623,0.3566 0.2779,0.8245 0.4802,1.169 l 0.8194,1.3959 c 0,0 0.1468,-0.1464 0.209,-0.1145 l 0.3458,0.1783 c 0.5292,0.273 0.8516,0.5813 1.0206,1.113 l 0.7937,0.7639 c 0.2146,0.207 0.4592,0.4811 0.716,0.698 0.1101,0.0924 0.4169,0.1662 0.5114,0.2631 0.5915,0.6142 1.4953,0.9214 1.9378,1.474 0.3013,0.3765 0.6015,0.4579 0.9461,0.634 0.2713,0.1388 0.6437,0.6506 0.9961,0.6572 l 0.4514,0.218 c 0.328,0.273 0.6993,0.5317 1.1106,0.5658 0.1323,0.1387 0.3669,0.262 0.5526,0.3182 0.4147,0.4194 1.0083,0.5471 1.5675,0.7959 0.6159,0.2741 1.1485,0.6814 1.7522,0.8597 l 1.1328,0.3347 c 0.3424,0.4106 0.925,0.546 1.4464,0.6803 0.5892,0.4953 0.0978,-0.0353 1.5198,0.7628 0.4024,0.2257 1.0962,0.1597 1.4786,0.4294 0.3357,0.2366 0.6815,0.3974 1.1318,0.5449 l 1.2507,0.4073 0.8349,0.1728 0.9728,0.2554 c 0.5903,0.1552 1.1373,0.3379 1.6999,0.3963 0.2557,0.0275 0.5391,0.066 0.8249,0.1222 l 1.035,0.2014 0.9317,0.0507 c 0.5091,0.0275 0.9538,0.164 1.4452,0.2785 0.567,0.1321 1.1173,-0.0264 1.631,0.011 l 1.6876,0.1244 c 0.3635,0.0264 0.6181,0.284 0.9639,-0.1013 0.2301,-0.2554 0.557,-0.2554 0.9083,-0.1079 l 0.8972,-0.1354 c 0.1167,0.043 0.2712,-0.0022 0.4547,-0.0341 l 1.8833,-0.3247 2.3458,-0.4855 1.1806,-0.0352 1.0495,-0.2037 c 0.368,-0.0715 0.8572,-0.0231 1.1173,-0.2631 l 0.1046,-0.0969 c -0.0857,0.0958 2.1556,-0.4865 1.9555,-0.4029 l 1.7088,-0.71 c 0.2801,-0.1167 0.6081,-0.0583 0.9316,-0.3082 0.5659,-0.4382 1.1151,-0.1156 1.4953,-0.775 0.1857,0.0352 0.5303,-0.2114 0.7193,-0.295 0.3413,-0.1497 0.6537,-0.2576 0.965,-0.3677 0.3358,-0.1189 1.3764,-0.6748 1.6432,-0.8774 l 0.8805,-0.666 0.269,-0.2047 c 0.7783,-0.4833 1.1085,-0.2334 1.4086,-0.8091 l 0.5237,-0.185 c 0.1378,-0.0506 0.3024,-0.3148 0.3757,-0.4491 l 0.1168,-0.2169 c 0.3202,0.2125 0.458,-0.175 0.687,-0.3357 0.7582,-0.5339 1.6321,-0.9522 2.1913,-1.6491 0.4091,-0.0286 0.9861,-0.4018 1.214,-0.6748 0.0845,-0.1012 0.2935,-0.2972 0.398,-0.3797 0.3825,-0.2235 0.686,-0.4107 0.8627,-0.7321 l 0.4625,-0.3071 c 0.2602,-0.1729 0.726,-0.3545 0.7538,-0.6814 0.4847,-0.2026 1.2641,-1.0084 1.8711,-1.2902 l 0.2446,-0.3622 c 0.488,-0.372 0.9449,-0.8531 1.4041,-1.3408 l 0.8038,-0.8553 c 0.2301,-0.2444 0.4247,-0.5053 0.547,-0.7794 0.2768,-0.1068 0.6759,-0.3391 0.7871,-0.6495 l 0.5347,-0.1288 0.1557,-0.9599 c 0.1612,-0.1222 0.3624,-0.3875 0.4536,-0.5724 l 0.4258,-0.8576 0.279,-0.317 c 0.2568,-0.6143 0.9317,-1.1878 1.1574,-1.9848 l 0.2079,-0.3468 1.0461,-2.0277 c 0.2446,-0.4733 0.3213,-1.0194 0.5348,-1.4982 l 0.6948,-1.5566 c 0.07,-0.1959 -0.2746,-0.6506 -0.0356,-0.8256 l 0.1134,0.0055 c 0.4614,0.1387 -0.3624,0.8586 1.1707,1.1427 0.089,-0.0287 0.249,-0.3688 0.1723,-0.4448 l -0.3869,-0.3787 -0.1289,-0.8982 -0.5103,-0.0298 0.0022,-0.099 c 0.3135,-0.3457 0.2957,-0.7882 0.4436,-1.2275 0.1145,-0.3412 0.3346,-0.7298 0.4236,-1.1074 l 0.229,-0.9753 0.3124,-1.7459 c 0.1156,-0.644 0.3513,-2.2061 0.2657,-2.7697 l 0.3302,-0.4359 -0.0078,-0.2257 c 0.2246,-0.4436 0.01,-1.0304 0.089,-1.5213 0.1489,-0.9258 0.2419,-1.7988 0.2067,-2.751 z"
             fill="url(#paint0_linear_151_219)"
             id="path8"
             style="fill:url(#paint0_linear_151_219)" />
          <path
             d="m 79.487,66.6318 c 4.9329,-4.5971 -5.4409,-8.6206 -5.4409,-8.6206 3.4098,5.5317 -4.3391,2.2105 -8.198,9.662 -4.3525,8.4048 9.3587,9.6619 9.3587,9.6619 -1.5186,-1.059 -0.6526,-6.1062 4.2802,-10.7033 z"
             fill="#000000"
             id="path9" />
          <path
             d="m 89.0347,85.1654 h 0.9717 c 0.5426,0 1.0139,-0.3193 1.1396,-0.7728 0.1756,-0.6319 -0.3825,-1.2384 -1.1396,-1.2384 H 40.3223 c -0.7571,0 -1.3152,0.6065 -1.1395,1.2384 0.1256,0.4524 0.597,0.7728 1.1395,0.7728 h 0.9717 l 1.1284,3.2243 c 0.6437,1.8384 1.9445,3.3917 3.6766,4.3097 0.0578,0.0309 0.1167,0.0617 0.1745,0.0925 0.7249,0.3798 1.6165,0.2301 2.1846,-0.3545 0.4114,-0.4238 0.9795,-0.6616 1.572,-0.6572 l 15.1343,0.0903 15.1342,-0.0903 c 0.5926,-0.0033 1.1618,0.2345 1.572,0.6572 0.3736,0.3842 0.9595,0.4712 1.4331,0.218 0.0167,-0.0088 0.0322,-0.0176 0.0489,-0.0264 2.4481,-1.31 4.2947,-3.4995 5.2063,-6.1019 l 0.477,-1.3617 z"
             fill="#000000"
             id="path10" />
          <path
             d="M 75.2791,78.2687 C 62.9465,77.3352 64.2517,69.8639 64.2517,69.8639 c -9.2131,1.2208 -4.5704,7.9733 -10.4471,8.1175 -5.8767,0.1431 -13.4088,6.2582 -13.4088,6.2582 l 45.8085,0.5493 c 0,0 1.4086,-5.5856 -10.9252,-6.5202 z"
             fill="#000000"
             id="path11" />
          <path
             d="m 80.8168,52.7669 c -1.5643,-5.6649 -4.5893,-8.6536 -7.023,-10.1992 -0.7315,-0.0341 -1.4363,-0.2201 -2.1201,-0.4128 1.4064,1.2384 2.4737,2.7113 3.2852,4.1997 1.6866,3.0955 -0.6136,6.8548 -4.1646,6.7623 -2.9183,-0.0759 -6.2113,0.284 -10.3159,0.6187 -1.3641,0.1123 -2.5314,-0.0738 -3.5298,-0.4491 -0.189,0.0517 -0.3891,0.077 -0.5914,0.077 -0.4181,0 -0.8261,-0.1134 -1.1463,-0.3192 -0.1912,-0.1233 -0.4024,-0.1839 -0.6426,-0.1839 -0.2401,0 -0.5102,0.0628 -0.7748,0.1454 1.8355,2.5528 5.0829,4.6697 10.8217,3.9266 12.7685,-1.6523 16.2027,4.4539 16.2027,4.4539 1.5486,-3.5204 0,-8.6205 0,-8.6205 z"
             fill="#000000"
             id="path12" />
          <path
             d="m 40.4625,53.3405 8.8362,0.2697 c 0.5758,0.0176 1.0995,-0.3281 1.304,-0.8609 l 0.646,-1.6787 c 0.2001,-0.5185 0.7015,-0.862 1.2629,-0.862 h 3.3453 c 0.3268,0 0.6437,0.1178 0.8894,0.3314 l 1.5231,1.3188 c 0.2479,0.2146 0.567,0.3324 0.8971,0.3313 l 2.8283,-0.0154 c 0.5793,-0.0033 1.0918,-0.371 1.2741,-0.9148 l 0.7193,-2.1378 c 0.1768,-0.5262 0.0078,-1.1052 -0.4247,-1.4575 l -3.5654,-2.8995 c -0.2179,-0.1773 -0.488,-0.283 -0.7693,-0.3017 l -7.1552,-0.4623 -6.2269,-0.5868 c -0.4392,-0.0418 -0.8716,0.1321 -1.1574,0.4657 l -2.0634,2.4031 c -0.1856,0.2158 -0.4347,0.3677 -0.7126,0.4337 l -2.9005,0.6935 c -0.7783,0.1861 -1.2241,0.9985 -0.9573,1.7459 l 1.1729,3.2915 c 0.1857,0.5207 0.6749,0.8752 1.233,0.8917 z"
             fill="#000000"
             id="path13" />
          <path
             d="m 68.871,41.5165 0.8427,-1.9474 c 0.2068,-0.4788 0.6904,-0.7827 1.2162,-0.7662 l 3.6688,0.1167 c 0.3647,0.0121 0.7071,0.1773 0.9405,0.4547 l 2.5371,3.014 c 0.2501,0.2973 0.6225,0.4646 1.0128,0.4547 l 5.293,-0.1277 c 0.5158,-0.0121 0.9739,-0.3314 1.1607,-0.808 l 1.2062,-3.0856 c 0.2568,-0.6561 -0.0756,-1.3926 -0.7404,-1.6414 l -5.1663,-1.9319 c -0.6015,-0.2246 -0.9406,-0.8576 -0.7916,-1.4773 l 1.154,-4.8007 c 0.1379,-0.5725 -0.1412,-1.1625 -0.6715,-1.4256 l -7.0807,-3.505 C 73.2802,23.955 73.0912,23.9088 72.8988,23.9066 L 61.5368,23.748 c -0.039,0 -0.0779,0 -0.1157,0.0033 l -10.0402,0.7651 c -0.3935,0.0297 -0.7515,0.2389 -0.9694,0.5658 l -4.1535,6.2406 c -0.1835,0.2752 -0.4681,0.469 -0.7927,0.5394 l -5.5621,1.2087 c -0.4313,0.0936 -0.7838,0.4018 -0.9316,0.8147 l -1.2218,3.4268 c -0.2691,0.7552 0.229,1.5654 1.0306,1.6755 l 12.7562,1.7426 c 0.0289,0.0044 0.0589,0.0088 0.0878,0.0154 l 9.9935,2.0751 c 0.1268,0.0264 0.2568,0.033 0.3869,0.0209 l 5.8167,-0.5614 c 0.4647,-0.0452 0.8671,-0.3369 1.0506,-0.7607 z"
             fill="#000000"
             id="path14" />
          <path
             d="m 35.553,18.4366 -1.7221,-2.6002 -1.7232,2.6002 C 31.3239,19.62 30.3211,20.6129 29.126,21.389 l -2.626,1.7052 2.626,1.7063 c 1.1951,0.776 2.1979,1.7701 2.9817,2.9524 l 1.7232,2.6001 1.7221,-2.6001 c 0.7838,-1.1834 1.7877,-2.1764 2.9817,-2.9524 L 41.1606,23.0942 38.5347,21.389 C 37.3396,20.6129 36.3368,19.6189 35.553,18.4366 Z"
             fill="#000000"
             id="path15" />
        </g>
      </g>
    </g>
  </g>
</svg>
